<?xml version="1.0" standalone="no"?>
<!DOCTYPE svg PUBLIC "-//W3C//DTD SVG 20010904//EN"
 "http://www.w3.org/TR/2001/REC-SVG-20010904/DTD/svg10.dtd">
<svg version="1.0" xmlns="http://www.w3.org/2000/svg"
 width="3840.000000pt" height="2160.000000pt" viewBox="0 0 3840.000000 2160.000000"
 preserveAspectRatio="xMidYMid meet">

<g transform="translate(0.000000,2160.000000) scale(0.100000,-0.100000)"
fill="#000000" stroke="none">
<path d="M17240 13904 c-14 -2 -187 -8 -385 -14 -484 -15 -533 -18 -1745 -115
-1787 -144 -2542 -210 -3405 -296 -1854 -185 -3479 -436 -5005 -774 -637 -141
-973 -225 -1838 -461 -294 -80 -535 -144 -538 -142 -2 2 -22 101 -44 219 -81
424 -125 546 -239 659 -66 67 -153 111 -272 140 -188 44 -689 66 -929 40 -208
-22 -624 -113 -896 -196 -661 -199 -1177 -541 -1533 -1014 l-91 -121 0 -168
c0 -149 2 -175 21 -218 11 -26 144 -347 296 -713 151 -366 320 -773 375 -905
167 -402 486 -1029 655 -1290 221 -339 524 -615 865 -786 l98 -49 609 0 610 0
58 35 c32 19 96 47 143 61 47 14 299 93 560 176 804 253 1131 348 1581 457
1662 405 3448 710 5534 945 2180 246 4148 395 5865 443 567 16 2773 8 3175
-12 55 -3 237 -10 405 -15 1293 -43 2784 -145 4160 -285 2543 -259 4555 -570
6350 -981 652 -150 1008 -250 1955 -554 220 -70 502 -160 626 -199 l226 -71
330 0 330 0 85 53 c145 92 248 175 388 316 213 215 354 420 520 756 54 110
121 257 149 327 53 133 498 1323 626 1674 86 238 104 275 147 307 46 34 55 36
192 48 66 5 200 26 297 45 96 18 181 34 187 34 32 0 -9 -128 -205 -650 -373
-988 -584 -1519 -693 -1745 -150 -308 -347 -576 -563 -766 -170 -149 -414
-295 -612 -365 l-80 -29 183 -3 183 -2 71 45 c301 195 570 474 775 804 186
299 320 592 571 1256 61 160 246 636 411 1059 332 847 321 812 277 928 -68
182 -178 350 -326 499 -189 190 -394 325 -800 528 -667 332 -1248 477 -1865
466 -202 -3 -313 -22 -496 -81 -167 -54 -275 -135 -338 -254 -38 -71 -58 -156
-66 -285 -8 -113 -54 -527 -60 -533 -9 -9 -232 44 -450 108 -1696 499 -3574
875 -5475 1094 -863 100 -2213 222 -4040 366 -355 28 -980 77 -1390 110 -1315
104 -1190 100 -3545 98 -1067 0 -1951 -2 -1965 -4z m3385 -89 c94 -3 332 -10
530 -15 1629 -46 3257 -157 5165 -351 2415 -245 4369 -565 6165 -1009 931
-231 1307 -351 2438 -782 232 -88 501 -189 597 -224 96 -36 193 -72 215 -81
82 -35 245 -127 245 -139 0 -6 -117 -338 -261 -736 -143 -397 -420 -1171 -616
-1718 -195 -547 -357 -997 -358 -999 -2 -1 -226 70 -497 159 -680 223 -1005
320 -1578 473 -1527 408 -3067 700 -4790 906 -2788 335 -5357 558 -7264 631
-931 36 -2254 33 -3151 -5 -610 -26 -840 -41 -1895 -125 -3038 -243 -4343
-382 -6245 -669 -2150 -325 -3894 -733 -5309 -1243 -223 -80 -367 -128 -387
-128 -4 0 -18 33 -32 73 -14 39 -168 473 -342 962 -174 490 -407 1144 -516
1455 -110 311 -229 645 -264 743 l-63 179 127 60 c952 453 2196 882 3494 1204
1512 374 3591 721 5807 968 2006 224 4456 384 6320 412 234 4 427 8 429 11 7
5 1838 -5 2036 -12z m15005 -679 c618 -93 1147 -296 1655 -636 170 -114 260
-187 371 -302 111 -115 203 -236 245 -326 65 -136 48 -275 -45 -360 -120 -110
-315 -173 -603 -192 -81 -5 -164 -13 -183 -16 -48 -8 -95 -39 -119 -77 -11
-18 -67 -168 -125 -332 -248 -712 -572 -1578 -690 -1850 -166 -378 -356 -668
-584 -886 -145 -140 -256 -219 -439 -311 l-161 -83 -21 25 c-11 14 -20 30 -21
36 0 7 90 265 201 575 110 310 324 911 474 1334 150 424 335 941 411 1150 122
338 138 387 138 446 1 95 -23 123 -167 193 -658 318 -803 394 -1107 574 -123
73 -160 101 -245 186 -162 163 -284 359 -301 483 -15 118 56 233 178 288 73
33 244 69 423 89 166 19 564 14 715 -8z m-32075 -67 c103 -10 236 -49 323 -93
89 -45 148 -100 182 -170 30 -61 32 -71 28 -141 -4 -65 -12 -90 -51 -168 -120
-239 -370 -486 -677 -667 -218 -129 -388 -203 -835 -362 -154 -55 -281 -101
-282 -102 -4 -3 284 -842 802 -2341 219 -632 400 -1157 403 -1168 6 -22 -8
-20 -155 29 -197 64 -342 155 -512 319 -278 269 -488 583 -682 1022 -78 177
-376 976 -611 1638 -54 154 -110 297 -125 317 -39 57 -107 85 -228 93 -237 16
-465 84 -571 170 -27 22 -55 59 -75 100 -29 60 -31 70 -27 148 4 70 10 96 40
159 81 172 169 273 353 411 654 490 1337 760 2061 816 139 11 495 6 639 -10z
m31009 -937 c135 -129 246 -235 246 -236 0 -1 -46 2 -102 6 -298 24 -431 125
-432 328 0 99 11 153 28 143 8 -5 125 -113 260 -241z m-30403 107 c18 -49 29
-99 29 -131 0 -46 -4 -55 -38 -88 -25 -23 -62 -44 -105 -58 -61 -20 -317 -72
-354 -72 -8 0 73 91 180 203 108 111 205 215 218 231 26 34 27 33 70 -85z
m-3502 -1013 c31 -8 97 -17 146 -21 116 -8 164 -20 251 -61 123 -58 208 -151
293 -321 22 -43 80 -199 131 -348 159 -468 482 -1297 599 -1540 221 -459 534
-824 928 -1084 57 -38 100 -71 96 -74 -11 -12 -148 -7 -234 8 -235 41 -491
171 -655 333 -156 154 -380 433 -523 652 -86 132 -235 417 -349 670 -121 269
-451 1038 -527 1230 -133 335 -223 570 -218 570 3 0 31 -6 62 -14z"/>
<path d="M20245 13323 c-63 -19 -145 -74 -189 -125 -70 -81 -126 -220 -126
-312 l0 -40 36 60 c106 176 200 202 454 125 91 -28 153 -41 192 -41 40 0 58
-4 57 -12 0 -7 -62 -166 -137 -353 l-137 -339 -70 -13 c-254 -45 -318 -81
-355 -201 -29 -94 -30 -93 49 -67 283 96 429 35 438 -184 l3 -76 -176 -165
-176 -165 161 -5 c89 -3 162 -8 162 -13 3 -22 -15 -159 -27 -206 -20 -74 -38
-98 -190 -246 -152 -148 -176 -189 -220 -364 -29 -115 -29 -114 42 -156 l44
-26 28 32 c56 67 56 65 38 128 -28 100 -19 160 32 214 38 41 85 62 225 104
116 34 130 36 272 37 181 1 266 -15 538 -105 100 -33 205 -63 232 -66 l51 -5
60 68 c34 38 116 139 184 224 68 85 129 162 137 171 12 15 11 20 -10 45 l-25
29 -44 -41 c-133 -122 -279 -150 -557 -104 -69 11 -157 23 -198 27 -40 3 -73
8 -73 10 0 9 138 133 201 180 133 100 264 165 405 200 94 23 313 23 409 -1
132 -32 185 -81 185 -170 0 -108 -57 -201 -329 -541 -105 -132 -201 -260 -213
-284 -19 -39 -20 -49 -9 -93 6 -27 22 -69 36 -93 33 -55 108 -125 136 -125 11
0 60 18 109 41 l88 41 -12 35 -12 36 -138 33 c-76 19 -144 38 -150 42 -15 8
286 266 485 415 224 169 324 304 379 514 24 92 45 464 37 658 -9 213 -69 361
-206 508 -66 72 -261 207 -297 207 -9 0 -263 -208 -321 -263 -9 -9 9 -12 75
-12 77 0 92 -3 134 -27 82 -49 165 -162 218 -297 l21 -55 -23 -18 c-13 -9 -61
-32 -108 -50 -81 -30 -92 -32 -225 -32 -117 -1 -153 3 -220 22 -116 33 -215
72 -215 85 0 6 23 46 51 88 l51 78 -22 31 c-58 81 -76 247 -44 393 9 40 36
114 60 165 66 137 119 185 324 295 l165 88 -160 -4 c-187 -6 -275 -25 -403
-88 -186 -91 -305 -272 -341 -519 -6 -41 -18 -237 -26 -435 -25 -581 -35 -678
-84 -774 -38 -74 -112 -142 -194 -176 l-32 -13 3 41 c1 23 11 137 22 252 11
116 24 262 30 325 6 63 13 237 16 385 3 149 10 315 15 369 29 281 145 478 356
605 48 29 79 50 68 47 -117 -33 -282 -43 -425 -27 -58 7 -188 30 -289 52 -201
43 -232 45 -306 22z m1945 -1528 l0 -165 -390 0 -390 0 0 165 0 165 390 0 390
0 0 -165z"/>
<path d="M18163 13199 c-123 -21 -219 -78 -370 -221 -55 -53 -130 -115 -165
-138 -140 -94 -207 -187 -229 -318 -10 -59 -9 -89 6 -184 22 -146 31 -477 16
-578 -12 -77 -80 -290 -92 -290 -13 0 -111 162 -155 254 -68 144 -95 250 -101
395 -7 142 5 227 48 345 61 167 171 327 337 488 103 100 102 103 -20 42 -361
-182 -635 -553 -693 -941 -25 -162 -17 -289 26 -458 114 -445 461 -798 899
-912 117 -31 334 -42 461 -24 314 45 606 196 779 404 52 63 160 251 149 261
-2 2 -94 -44 -205 -103 -306 -162 -461 -212 -661 -212 -57 0 -108 3 -113 6 -6
4 -10 207 -10 545 l0 539 43 12 c27 8 116 11 251 10 255 -2 294 6 366 78 50
50 86 126 97 207 5 40 4 44 -15 44 -40 0 -387 32 -391 36 -3 2 3 10 12 17 9 6
137 116 285 242 l270 230 -17 28 c-9 16 -23 32 -31 37 -8 4 -67 11 -130 15
-162 10 -204 19 -300 69 -132 68 -243 92 -347 75z m-193 -1265 c0 -780 -2
-965 -13 -961 -7 2 -98 50 -202 106 -105 56 -236 125 -292 154 -57 28 -103 57
-103 62 0 6 5 27 10 47 8 28 26 48 79 87 258 192 354 470 321 937 -24 339 -24
316 0 371 12 28 34 62 48 76 26 25 129 86 145 87 4 0 7 -435 7 -966z m358 861
c128 -42 232 -81 230 -86 -4 -11 -469 -493 -480 -497 -4 -2 -8 148 -8 333 0
266 3 336 13 333 6 -3 117 -40 245 -83z"/>
<path d="M15875 13064 c-104 -74 -242 -170 -306 -214 l-117 -80 -37 105 c-45
126 -77 179 -137 228 -95 78 -148 83 -304 32 -215 -71 -412 -193 -579 -360
-205 -206 -345 -458 -405 -734 -11 -47 -20 -98 -20 -112 0 -23 -18 -34 -215
-129 -118 -57 -217 -101 -218 -99 -2 2 -37 78 -77 169 -40 91 -91 201 -113
245 -157 316 -356 455 -827 583 -112 30 -151 36 -230 36 -171 -1 -239 -39
-745 -411 -83 -61 -200 -141 -260 -177 -135 -83 -184 -123 -241 -195 -62 -78
-110 -179 -140 -296 -35 -133 -45 -428 -20 -571 95 -550 502 -906 1036 -906
145 -1 256 17 418 68 266 82 469 210 672 420 167 173 270 326 412 608 78 155
99 188 152 241 77 77 124 100 197 99 67 -1 167 -44 215 -91 64 -65 133 -296
141 -480 6 -117 5 -124 -21 -176 -43 -89 -107 -123 -300 -157 -227 -41 -306
-88 -336 -198 -12 -46 -5 -148 11 -158 5 -3 82 6 172 20 89 14 235 30 323 36
316 20 460 89 542 261 59 124 64 169 69 657 l5 442 239 0 239 0 0 -50 c0 -51
-36 -684 -44 -777 l-4 -51 170 -154 c94 -84 177 -153 184 -153 8 0 144 114
303 253 l290 254 -53 51 c-79 78 -116 189 -116 352 0 152 48 333 125 470 19
35 35 65 35 68 0 3 -40 15 -90 27 l-90 22 0 372 c0 236 4 385 11 411 32 117
117 111 214 -15 55 -71 111 -181 125 -246 16 -69 29 -607 30 -1160 0 -270 4
-494 10 -525 23 -125 103 -239 214 -304 42 -24 49 -26 64 -13 9 8 94 77 187
153 94 76 174 142 179 146 5 5 -22 6 -60 3 -91 -7 -147 19 -183 86 -25 44 -25
45 -26 350 0 168 -5 467 -9 665 -9 381 -4 479 35 681 19 102 67 262 108 363
13 33 17 50 9 44 -7 -5 -60 -47 -116 -94 -57 -46 -107 -83 -112 -82 -5 1 -84
58 -177 126 -92 68 -179 130 -193 139 -25 15 -28 13 -215 -118z m-920 -266
c71 -144 76 -179 73 -487 l-3 -244 -234 -57 -233 -57 6 226 c8 248 28 447 52
496 8 18 30 46 48 64 34 33 216 168 228 170 4 1 32 -50 63 -111z m705 -403 l0
-365 -103 0 -104 0 -11 53 c-28 123 -44 265 -38 337 7 100 29 159 79 216 38
43 148 124 169 124 4 0 8 -164 8 -365z m-1202 175 l22 0 0 -829 c0 -758 -1
-833 -17 -882 -30 -92 -117 -159 -207 -159 -14 0 -26 3 -26 8 0 4 18 72 39
152 75 277 76 285 76 600 0 157 -4 400 -9 540 -8 252 -8 257 18 405 34 186 31
179 59 171 12 -3 32 -6 45 -6z m-2469 -279 c9 -26 22 -166 106 -1201 38 -463
44 -562 34 -602 -6 -27 -15 -48 -19 -48 -14 0 -544 211 -554 220 -10 10 92
146 153 205 59 56 118 152 148 237 39 111 41 241 9 508 -30 256 -61 641 -52
673 3 13 22 44 42 70 l37 48 43 -42 c24 -23 47 -54 53 -68z m291 82 c209 -34
394 -108 528 -210 72 -55 152 -137 152 -156 0 -5 -33 -42 -73 -82 -53 -52 -97
-84 -152 -111 -79 -39 -79 -39 -200 -38 -103 0 -132 4 -202 27 -107 36 -171
80 -203 142 -22 44 -25 64 -31 219 -4 94 -12 186 -18 205 l-10 33 57 -6 c31
-4 100 -14 152 -23z m-783 -683 c32 -263 37 -335 37 -520 1 -207 -14 -373 -35
-386 -16 -9 -148 133 -206 222 -217 334 -182 729 91 1022 l61 65 7 -49 c4 -27
24 -186 45 -354z m1614 -93 c17 -158 30 -289 27 -292 -2 -2 -42 16 -89 40
-188 97 -371 134 -521 106 -83 -16 -208 -78 -285 -140 -35 -28 -63 -48 -63
-43 -1 4 -11 124 -24 267 -13 143 -21 262 -20 264 2 2 39 -12 81 -32 187 -86
365 -92 563 -18 59 22 181 91 245 139 34 25 41 27 47 13 4 -9 21 -145 39 -304z
m2577 -24 c23 -357 25 -411 18 -447 -5 -27 -68 -136 -101 -174 -8 -9 -134 101
-143 125 -13 32 -29 206 -37 403 -3 74 -8 168 -11 208 l-6 72 134 0 134 0 12
-187z m-2798 -221 c60 -28 148 -109 174 -161 15 -27 16 -41 7 -83 -31 -144
-156 -304 -337 -434 -132 -94 -331 -180 -436 -186 l-41 -3 -24 200 c-16 135
-22 241 -21 325 3 117 5 128 33 178 33 61 67 93 136 127 106 54 304 89 404 72
28 -5 75 -20 105 -35z"/>
<path d="M24100 13037 c-61 -25 -116 -62 -199 -131 -30 -25 -104 -71 -164
-103 -179 -95 -283 -206 -338 -363 -21 -60 -23 -84 -24 -295 -2 -182 -7 -256
-23 -357 -25 -146 -41 -192 -107 -314 -55 -100 -46 -101 -114 16 -135 230
-159 490 -68 731 75 198 221 407 445 637 101 103 99 109 -24 71 -157 -48 -296
-138 -434 -278 -194 -197 -329 -464 -360 -711 -30 -231 24 -539 132 -755 114
-227 313 -427 536 -539 257 -129 602 -152 894 -60 251 79 491 255 636 467 29
42 51 77 49 77 -2 0 -90 -38 -195 -84 -297 -132 -424 -167 -595 -167 -77 0
-193 14 -203 24 -2 2 44 637 72 995 5 66 10 82 23 82 9 0 135 -12 281 -26 298
-30 325 -28 386 29 19 18 61 83 93 144 l58 113 -31 5 c-17 3 -104 18 -194 33
-89 15 -163 31 -163 35 0 4 127 116 281 249 154 133 278 243 276 245 -2 2 -82
21 -177 42 -191 43 -259 66 -325 112 -25 17 -75 44 -112 62 -58 27 -80 32
-162 35 -81 2 -103 -1 -150 -21z m-154 -228 l44 -11 -5 -62 c-6 -60 -58 -729
-112 -1439 l-28 -359 -36 -29 -36 -28 -179 113 c-250 157 -384 245 -384 253 0
3 5 23 12 44 10 34 20 44 87 80 209 112 333 273 395 509 33 126 44 206 61 450
14 212 19 237 80 380 15 36 31 75 36 88 10 26 7 25 65 11z m352 -130 c114 -50
229 -101 256 -113 l49 -22 -292 -232 c-160 -128 -293 -232 -294 -232 -1 0 11
155 28 345 16 190 33 345 38 345 5 0 102 -41 215 -91z"/>
<path d="M25800 12900 c-150 -37 -258 -101 -382 -227 -138 -139 -226 -280
-290 -464 -29 -85 -32 -105 -33 -209 0 -83 5 -132 19 -175 36 -119 121 -267
258 -447 32 -42 58 -80 58 -83 0 -4 -73 -82 -162 -174 -368 -379 -435 -474
-407 -575 15 -54 99 -116 158 -116 25 0 25 2 46 155 10 72 19 131 21 133 1 2
41 -4 89 -14 101 -20 122 -32 330 -199 222 -178 259 -198 365 -199 68 0 144
32 416 179 108 58 199 103 204 100 4 -2 11 -35 15 -72 11 -113 35 -216 60
-258 25 -43 90 -95 142 -113 28 -9 41 -6 112 28 44 22 142 79 218 127 l138 88
-86 7 c-152 11 -187 49 -175 193 14 168 198 1623 212 1680 44 169 138 275 284
321 30 9 58 20 62 23 4 4 -4 25 -17 47 l-25 42 -216 -97 -216 -97 -140 93
c-245 162 -496 273 -696 308 -115 20 -269 18 -362 -5z m361 -314 c106 -27 214
-73 302 -129 57 -37 57 -37 43 -65 -8 -15 -28 -40 -45 -56 -42 -40 -88 -38
-231 9 -188 62 -306 53 -416 -31 -54 -41 -165 -206 -150 -222 3 -3 45 7 93 22
119 36 154 41 210 27 53 -13 204 -69 215 -80 6 -5 -355 -358 -595 -581 l-70
-65 -60 65 c-165 180 -233 342 -225 539 7 161 56 275 167 388 184 188 466 254
762 179z m529 -328 c20 -99 14 -282 -15 -483 -14 -99 -29 -244 -32 -323 l-6
-143 -41 7 c-23 4 -221 35 -441 69 -220 34 -399 66 -397 71 3 11 904 863 913
864 4 0 12 -28 19 -62z m-898 -1069 c57 -11 265 -47 463 -80 197 -33 361 -61
362 -63 2 -2 -27 -68 -65 -148 -43 -90 -82 -157 -104 -179 -85 -85 -247 -169
-327 -169 -55 0 -132 32 -198 81 -108 82 -227 159 -413 268 -96 56 -179 106
-184 111 -23 22 68 137 136 171 84 43 143 44 330 8z"/>
<path d="M27972 12540 c-78 -21 -208 -84 -257 -125 l-30 -25 40 6 c21 4 91 7
155 8 286 2 400 -103 401 -370 0 -105 -14 -150 -64 -202 -41 -43 -77 -61 -202
-102 -86 -28 -180 -67 -494 -207 l-53 -24 103 -78 c131 -98 149 -119 238 -274
141 -246 238 -479 225 -534 -20 -80 -79 -111 -235 -124 -131 -10 -211 -28
-318 -69 -86 -34 -257 -143 -336 -216 l-50 -46 35 7 c19 3 87 15 150 27 157
29 481 31 615 5 253 -50 505 -167 688 -319 l48 -40 87 53 c48 29 155 95 237
147 l150 93 -55 -8 c-82 -12 -200 -9 -244 6 -21 7 -56 29 -77 48 -82 74 -88
202 -25 513 44 215 60 264 94 291 37 29 78 20 160 -33 218 -141 306 -330 357
-763 32 -281 64 -374 161 -465 30 -29 58 -50 63 -48 5 2 102 59 215 128 131
80 206 131 206 141 0 37 -23 39 -134 13 -60 -14 -110 -24 -111 -22 -2 2 -15
77 -30 168 -65 410 -95 538 -156 685 -42 101 -120 215 -204 300 l-73 72 304
138 304 138 -79 151 c-43 83 -143 275 -221 426 -79 151 -144 276 -146 278 -3
4 -101 -31 -433 -153 -276 -102 -280 -102 -281 -49 0 35 -40 154 -72 218 -16
32 -52 81 -79 108 -123 123 -379 180 -577 128z m1249 -582 c87 -173 270 -560
267 -563 -2 0 -145 -63 -318 -138 -224 -96 -317 -132 -322 -124 -11 18 -10
254 3 344 36 266 147 523 257 598 20 14 38 25 39 25 2 0 35 -64 74 -142z
m-370 16 c17 -8 29 -21 27 -27 -2 -7 -73 -361 -158 -788 l-154 -777 -47 -15
-47 -15 -31 69 c-17 38 -31 84 -31 102 0 17 18 138 40 267 95 551 188 1005
216 1049 22 33 136 151 147 151 4 0 22 -7 38 -16z m-626 -286 c-3 -13 -19
-115 -35 -228 -17 -113 -34 -213 -38 -223 -6 -14 -37 12 -165 141 l-158 158
193 86 c106 48 196 87 201 87 4 1 5 -9 2 -21z"/>
<path d="M9465 12150 c-170 -137 -313 -249 -317 -250 -5 0 -8 6 -8 14 0 7 -18
49 -39 92 -89 177 -234 264 -439 264 -171 0 -321 -50 -415 -139 -51 -48 -115
-146 -104 -158 3 -2 42 12 87 32 l82 37 126 -26 c85 -17 148 -36 192 -58 58
-30 68 -39 94 -91 31 -62 45 -170 32 -242 -10 -50 -129 -173 -349 -362 l-168
-144 -42 37 c-23 21 -105 95 -182 164 -244 221 -353 308 -406 325 -96 32 -153
0 -267 -148 -113 -149 -354 -427 -363 -421 -5 3 -25 55 -44 117 -130 410 -66
659 218 848 l92 61 -60 -7 c-203 -23 -389 -122 -496 -265 -92 -123 -137 -253
-146 -425 -7 -134 8 -225 110 -700 67 -311 71 -338 71 -460 1 -164 -18 -219
-103 -307 -32 -32 -62 -58 -68 -58 -6 0 -24 85 -42 203 -62 389 -93 564 -137
767 -59 266 -74 371 -74 505 0 135 18 223 65 321 41 85 137 194 216 245 27 17
48 33 46 35 -6 6 -553 -54 -747 -81 -150 -22 -185 -30 -245 -60 -81 -39 -139
-94 -191 -180 -59 -99 -117 -148 -222 -188 -54 -20 -74 -21 -357 -22 l-300 0
-70 -29 c-60 -25 -84 -44 -170 -130 -165 -168 -265 -325 -329 -516 -83 -249
-65 -495 56 -770 69 -159 80 -202 73 -280 -8 -89 -27 -190 -35 -190 -4 0 -53
47 -108 104 -154 160 -250 320 -300 498 -13 49 -17 100 -16 228 0 150 3 173
28 255 34 113 118 290 191 402 l56 86 -43 -32 c-77 -56 -217 -203 -277 -291
-151 -221 -221 -444 -221 -705 0 -200 40 -367 131 -545 250 -488 853 -752
1382 -606 287 80 563 278 730 525 85 126 143 283 135 367 l-3 33 -145 -130
c-80 -72 -181 -158 -225 -191 -132 -99 -284 -162 -409 -170 l-48 -3 -89 330
c-49 182 -157 574 -239 873 -83 299 -150 548 -150 553 0 6 12 8 27 5 16 -3 87
-10 158 -16 243 -19 318 9 499 180 63 61 118 110 122 110 4 0 26 -16 50 -35
l43 -36 17 28 c119 197 177 244 324 262 63 8 283 -1 338 -14 28 -7 33 36 -49
-409 -32 -175 -59 -320 -59 -322 0 -1 -37 -15 -82 -30 -214 -70 -278 -138
-278 -296 l0 -77 78 56 c97 70 151 94 227 100 50 4 68 1 105 -19 53 -28 103
-97 125 -170 l14 -50 -140 -235 c-77 -130 -138 -238 -136 -240 2 -2 75 24 162
57 87 33 164 60 171 60 25 0 24 -309 -1 -380 -7 -21 -47 -88 -89 -149 -79
-115 -99 -166 -117 -288 -18 -116 -10 -136 72 -190 39 -25 74 -41 79 -37 12
14 30 132 23 152 -4 9 -17 30 -29 45 -55 66 -52 146 9 205 60 58 299 175 442
215 63 19 107 21 457 25 375 3 387 4 393 23 4 11 58 128 120 260 l113 239 -25
20 -25 19 -38 -47 c-99 -126 -219 -178 -455 -197 -135 -11 -238 -25 -294 -41
-29 -8 -56 -13 -59 -10 -15 15 166 253 264 347 257 245 539 320 829 220 l80
-27 -3 -39 c-2 -22 -12 -83 -22 -135 -16 -83 -33 -124 -140 -335 -136 -271
-160 -344 -160 -486 0 -79 2 -90 26 -118 25 -30 122 -82 178 -95 26 -6 35 -1
89 54 32 34 55 65 51 69 -5 4 -38 18 -74 30 -91 32 -190 82 -190 95 1 6 68 90
151 186 354 413 409 559 409 1089 0 108 3 213 6 233 6 35 8 37 38 31 70 -13
215 -66 285 -104 210 -113 325 -265 359 -476 10 -60 12 -100 6 -109 -5 -7 -65
-41 -134 -75 -323 -157 -443 -266 -505 -457 -9 -29 -15 -55 -14 -56 2 -2 51
23 109 56 347 194 697 247 1090 166 291 -59 457 14 582 259 71 138 71 148 0
81 -33 -32 -67 -58 -75 -58 -32 0 -225 43 -273 61 -28 11 -59 28 -68 38 -36
40 -67 210 -86 466 -16 217 -18 201 38 208 61 7 179 -17 257 -52 85 -39 174
-110 237 -188 76 -94 84 -107 188 -293 85 -152 338 -550 350 -550 5 0 232 244
324 348 47 52 47 52 -73 81 -153 38 -146 31 -233 209 -42 86 -103 196 -135
244 -125 187 -291 351 -467 464 -41 27 -75 52 -76 55 0 3 99 92 220 198 121
107 220 195 220 198 0 4 -548 603 -609 665 l-36 37 -310 -249z m352 -324 c151
-143 272 -263 271 -267 -2 -4 -124 -114 -273 -243 -262 -229 -270 -235 -276
-209 -4 16 -7 52 -8 80 0 29 -18 146 -38 260 -32 180 -37 230 -37 368 -1 140
2 169 22 234 l23 73 22 -18 c12 -11 144 -136 294 -278z m-472 62 c2 -2 47
-334 100 -739 l98 -737 -23 -71 c-12 -39 -26 -71 -29 -71 -4 0 -38 28 -75 63
l-68 62 -14 80 c-48 275 -141 990 -150 1155 l-5 95 50 92 51 92 31 -9 c18 -5
33 -11 34 -12z m-495 -624 c16 -115 30 -219 30 -232 0 -22 -7 -20 -132 47 -73
38 -157 83 -186 99 l-53 29 152 137 c83 75 153 135 155 133 3 -2 18 -98 34
-213z m-1315 92 c95 -44 198 -183 212 -284 l5 -37 -88 -47 c-218 -113 -406
-135 -678 -78 l-55 11 96 112 c156 180 274 294 334 322 67 31 110 31 174 1z
m-3091 -486 c31 -118 138 -518 238 -889 l180 -675 -20 -35 c-13 -23 -29 -37
-44 -38 -13 -1 -160 33 -328 75 l-305 78 3 39 c3 30 15 51 59 99 147 162 202
303 203 513 0 134 -26 263 -106 531 -86 289 -93 338 -54 412 18 35 103 121
111 112 3 -4 32 -104 63 -222z m3381 -102 c19 -79 32 -144 30 -146 -5 -6 -776
-145 -780 -140 -6 5 -48 259 -44 262 2 1 117 28 254 59 138 32 306 70 375 86
69 16 127 27 129 25 2 -2 18 -67 36 -146z"/>
<path d="M30623 11910 c-189 -21 -302 -72 -431 -194 -92 -86 -160 -195 -187
-298 -15 -56 -19 -57 86 28 144 116 283 198 379 224 98 26 248 6 348 -48 l33
-18 -143 -114 c-171 -136 -378 -341 -471 -465 -79 -106 -168 -279 -197 -385
-105 -379 87 -847 443 -1084 225 -150 505 -236 767 -236 253 0 467 67 698 216
45 30 84 54 86 54 2 0 6 -26 10 -57 39 -340 185 -457 587 -470 128 -4 195 -2
293 12 237 33 376 8 511 -91 103 -77 166 -113 204 -121 67 -12 583 173 856
306 227 112 343 229 401 408 24 75 26 92 22 195 -9 180 -62 309 -179 428 -116
119 -234 181 -528 281 l-211 71 20 25 c11 14 113 125 228 247 343 365 309 324
286 347 -20 19 -20 19 -117 -44 l-97 -64 -172 115 c-303 200 -435 272 -502
272 -41 0 -348 -148 -471 -227 -162 -104 -285 -230 -356 -364 -38 -70 -85
-109 -162 -135 -78 -25 -124 -51 -174 -97 -135 -125 -147 -355 -25 -515 60
-79 158 -131 466 -249 121 -46 221 -85 222 -86 4 -4 -156 -72 -219 -93 -42
-14 -63 -15 -165 -5 -137 14 -545 71 -552 77 -2 3 15 43 38 91 24 47 42 87 40
89 -2 1 -64 -35 -138 -82 -264 -167 -420 -231 -592 -241 -83 -5 -98 -4 -98 9
0 19 356 1648 362 1653 2 2 49 -1 103 -6 123 -13 319 -5 400 16 130 34 207 92
255 188 28 57 57 173 47 184 -3 2 -29 -14 -58 -36 -106 -81 -223 -105 -371
-77 -98 19 -183 47 -527 176 -285 107 -409 145 -561 171 -129 22 -376 32 -487
19z m457 -374 c0 -3 -7 -38 -15 -78 -9 -40 -38 -210 -66 -378 -95 -578 -173
-845 -326 -1108 l-26 -43 -24 23 c-14 13 -50 60 -80 106 -134 201 -185 419
-150 647 59 379 259 652 587 796 84 38 100 43 100 35z m534 -163 c56 -14 105
-29 109 -33 8 -7 -93 -498 -279 -1353 -46 -213 -84 -391 -84 -394 0 -9 -140 8
-235 28 -91 19 -201 65 -272 113 -21 14 -69 56 -106 93 -57 57 -65 69 -50 75
10 4 54 21 98 37 113 43 198 96 275 171 159 156 219 310 295 750 36 213 71
368 99 445 27 76 36 95 42 95 4 0 53 -12 108 -27z m1944 -228 c79 -32 172 -82
480 -260 56 -33 101 -62 100 -66 -8 -18 -259 -215 -296 -231 -40 -18 -47 -18
-127 -3 -46 8 -128 29 -182 45 -104 30 -363 131 -399 155 -43 28 -37 214 8
262 31 33 109 81 176 109 81 33 135 31 240 -11z m-789 -535 c57 -91 168 -171
300 -214 42 -14 144 -39 226 -56 203 -42 225 -49 236 -78 5 -13 9 -29 9 -36 0
-15 -174 -90 -231 -100 -116 -20 -558 124 -643 210 -69 70 -61 147 25 261 22
29 43 53 47 53 4 0 18 -18 31 -40z m1222 -406 c301 -63 483 -172 564 -338 102
-208 49 -428 -149 -620 -188 -181 -336 -230 -486 -160 -36 17 -84 47 -108 67
l-43 36 58 16 c218 61 271 86 394 192 190 162 219 321 80 446 -88 79 -148 100
-519 178 -129 27 -238 51 -242 54 -4 3 -10 23 -12 45 l-4 40 82 25 c174 53
215 55 385 19z m-454 -444 c392 -85 406 -90 458 -151 30 -36 32 -78 6 -134
-24 -53 -79 -100 -165 -141 -95 -45 -170 -59 -244 -43 -67 13 -86 22 -195 93
-45 30 -116 70 -157 91 -41 20 -103 53 -138 72 l-62 35 17 30 c47 81 124 144
203 169 51 15 143 8 277 -21z m-987 -339 c115 -39 333 -120 471 -176 13 -5 14
-12 6 -45 -11 -38 -12 -39 -81 -54 -227 -50 -389 -46 -548 13 -89 34 -117 59
-165 145 -24 43 -42 80 -41 82 13 12 177 84 193 84 11 0 86 -22 165 -49z"/>
</g>
</svg>
